# xmcd
#
# Track frame offsets: 
#        150
#        16397
#        26400
#        39300
#        53025
#        67050
#        80850
#        93900
#        107175
#        121350
#        136050
#        149850
#        164700
#        179925
#        192150
#        205350
#
# Disc length: 3120 seconds
#
# Revision: 0
# Processed by: cddbd v1.5.2PL0 Copyright (c) Steve Scherf et al.
# Submitted via: ExactAudioCopy v0.99pb5
#
DISCID=f40c2e10
DTITLE=TMP - Blues and the city 1
DYEAR=1900
DGENRE=Blues
TTITLE0=It's my own fault baby - B.B. King
TTITLE1=Dimples - John Lee Hooker
TTITLE2=Hound dogs - Willie Mae Thornton
TTITLE3=It hurts me to my heart - Faye Adams
TTITLE4=Can't quit you baby - Otis Rush
TTITLE5=Blues with a feeling - Little Walter
TTITLE6=I got a woman - Ray Charles
TTITLE7=Mama, he trats your daughter mean - Ruth Brown
TTITLE8=T-99 blues - Jimmy Nelson
TTITLE9=My home is in the delta - Otis Spann
TTITLE10=The things that I used to do - Guitar Slim
TTITLE11=Bad luck blues - Albert King
TTITLE12=Five after four a.m. - Johnny Winter
TTITLE13=Am I wrong (live) - Keb' Mo'
TTITLE14=Mannish boy - Muddy Waters
TTITLE15=The sky is crying (live) - Stevie Ray Waughan, Paul Butterfie
TTITLE15=ld, Albert King
EXTD=
EXTT0=
EXTT1=
EXTT2=
EXTT3=
EXTT4=
EXTT5=
EXTT6=
EXTT7=
EXTT8=
EXTT9=
EXTT10=
EXTT11=
EXTT12=
EXTT13=
EXTT14=
EXTT15=
PLAYORDER=
